<svg id="ALD_Carmaket_logo_NEG" data-name="ALD Carmaket logo_NEG" xmlns="http://www.w3.org/2000/svg" width="385.142" height="36.058" viewBox="0 0 385.142 36.058">
  <path id="Path_151" data-name="Path 151" d="M36.593,33.555H21.041l-2.959,7.156H10.1L25.032,7.2H32.67l15,33.512h-8.12Zm-2.477-5.918-5.3-12.868-5.3,12.868Z" transform="translate(-10.1 -5.204)" fill="#0f375b"/>
  <path id="Path_152" data-name="Path 152" d="M69.8,7.2h7.776V34.381h16.79v6.331H69.8Z" transform="translate(-28.719 -5.204)" fill="#0f375b"/>
  <path id="Path_153" data-name="Path 153" d="M111.8,7.2h15.276a21.351,21.351,0,0,1,9.634,2.064,15.883,15.883,0,0,1,6.537,5.849,16.823,16.823,0,0,1,2.34,8.808,16.207,16.207,0,0,1-2.34,8.808,15.424,15.424,0,0,1-6.537,5.849,21.558,21.558,0,0,1-9.634,2.064H111.869V7.2Zm14.863,27.112a11.362,11.362,0,0,0,8.051-2.821,9.851,9.851,0,0,0,2.959-7.569,10.1,10.1,0,0,0-2.959-7.569,11.362,11.362,0,0,0-8.051-2.821h-7.088V34.312Z" transform="translate(-41.818 -5.204)" fill="#0f375b"/>
  <path id="Path_154" data-name="Path 154" d="M194.877,38.779a17.153,17.153,0,0,1-6.537-6.193A17.024,17.024,0,0,1,186,23.641a17.025,17.025,0,0,1,2.34-8.946A17.153,17.153,0,0,1,194.877,8.5a18.914,18.914,0,0,1,9.29-2.2,19.224,19.224,0,0,1,7.845,1.514,15.728,15.728,0,0,1,5.918,4.4l-4.954,4.61a10.724,10.724,0,0,0-8.4-3.922,11.532,11.532,0,0,0-5.574,1.376,9.537,9.537,0,0,0-3.785,3.785,11.339,11.339,0,0,0-1.376,5.574,11.532,11.532,0,0,0,1.376,5.574A9.537,9.537,0,0,0,199.005,33a11.339,11.339,0,0,0,5.574,1.376,10.392,10.392,0,0,0,8.4-3.991l4.954,4.61a15.9,15.9,0,0,1-5.918,4.473,20.867,20.867,0,0,1-17.134-.688Z" transform="translate(-64.959 -4.924)" fill="#0f375b"/>
  <path id="Path_155" data-name="Path 155" d="M257.863,20.69c2.133,1.927,3.234,4.748,3.234,8.6V44.017h-7.019V40.783c-1.376,2.408-3.991,3.578-7.845,3.578a11.905,11.905,0,0,1-5.161-1.032,7.743,7.743,0,0,1-3.3-2.752,7.323,7.323,0,0,1-1.17-3.991,6.7,6.7,0,0,1,2.684-5.643c1.789-1.376,4.61-2.064,8.326-2.064h5.918a4.687,4.687,0,0,0-1.514-3.785,6.436,6.436,0,0,0-4.473-1.307,13.512,13.512,0,0,0-4.06.619,11.091,11.091,0,0,0-3.372,1.72l-2.684-5.23a15.317,15.317,0,0,1,5.023-2.271A22.547,22.547,0,0,1,248.5,17.8C252.633,17.869,255.661,18.832,257.863,20.69Zm-6.4,17.822A5.045,5.045,0,0,0,253.6,35.9V33.283H248.5c-3.1,0-4.61,1.032-4.61,3.028a2.626,2.626,0,0,0,1.1,2.271,5.167,5.167,0,0,0,3.1.826A7.659,7.659,0,0,0,251.463,38.512Z" transform="translate(-80.74 -8.51)" fill="#0f375b"/>
  <path id="Path_156" data-name="Path 156" d="M292.735,18.863a13.633,13.633,0,0,1,5.23-.963v6.881c-.826-.069-1.376-.069-1.651-.069A7,7,0,0,0,291.29,26.5c-1.239,1.17-1.789,2.959-1.789,5.367v12.18H282v-25.8h7.156v3.372A8.088,8.088,0,0,1,292.735,18.863Z" transform="translate(-94.9 -8.542)" fill="#0f375b"/>
  <path id="Path_157" data-name="Path 157" d="M352.306,20.69c1.927,1.927,2.821,4.748,2.821,8.533V43.949h-7.5V30.393a6.888,6.888,0,0,0-1.239-4.542,4.4,4.4,0,0,0-3.647-1.514,5.258,5.258,0,0,0-4.2,1.72,7.194,7.194,0,0,0-1.514,5.023V44.017h-7.5V30.393c0-4.06-1.651-6.055-4.886-6.055a5.208,5.208,0,0,0-4.129,1.72A7.194,7.194,0,0,0,319,31.081V44.017h-7.5v-25.8h7.225v2.959a9.071,9.071,0,0,1,3.509-2.477,12.141,12.141,0,0,1,4.542-.895,10.9,10.9,0,0,1,4.954,1.1,8.808,8.808,0,0,1,3.578,3.165,10.443,10.443,0,0,1,3.991-3.1,12.18,12.18,0,0,1,5.3-1.1A10.617,10.617,0,0,1,352.306,20.69Z" transform="translate(-104.1 -8.51)" fill="#0f375b"/>
  <path id="Path_158" data-name="Path 158" d="M403.463,20.69c2.133,1.927,3.234,4.748,3.234,8.6V44.017h-7.019V40.783c-1.376,2.408-3.991,3.578-7.845,3.578a11.905,11.905,0,0,1-5.161-1.032,7.743,7.743,0,0,1-3.3-2.752,7.323,7.323,0,0,1-1.17-3.991,6.7,6.7,0,0,1,2.684-5.643c1.789-1.376,4.61-2.064,8.326-2.064h5.918a4.687,4.687,0,0,0-1.514-3.785,6.436,6.436,0,0,0-4.473-1.307,13.512,13.512,0,0,0-4.06.619,11.091,11.091,0,0,0-3.372,1.72l-2.684-5.23a15.317,15.317,0,0,1,5.023-2.271A22.547,22.547,0,0,1,394.1,17.8C398.3,17.869,401.33,18.832,403.463,20.69Zm-6.331,17.822a5.045,5.045,0,0,0,2.133-2.615V33.283h-5.092c-3.1,0-4.61,1.032-4.61,3.028a2.626,2.626,0,0,0,1.1,2.271,5.167,5.167,0,0,0,3.1.826A7.918,7.918,0,0,0,397.132,38.512Z" transform="translate(-126.15 -8.51)" fill="#0f375b"/>
  <path id="Path_159" data-name="Path 159" d="M438.335,18.863a13.633,13.633,0,0,1,5.23-.963v6.881c-.826-.069-1.376-.069-1.651-.069A7,7,0,0,0,436.89,26.5c-1.239,1.17-1.789,2.959-1.789,5.367v12.18h-7.5v-25.8h7.156v3.372A8.493,8.493,0,0,1,438.335,18.863Z" transform="translate(-140.309 -8.542)" fill="#0f375b"/>
  <path id="Path_160" data-name="Path 160" d="M468.379,29.692,464.8,33.2v6.537h-7.5V4.3h7.5V24.393l10.941-10.322h8.877L473.884,25.012l11.7,14.863H476.5Z" transform="translate(-149.572 -4.3)" fill="#0f375b"/>
  <path id="Path_161" data-name="Path 161" d="M525.974,33.214H506.5A5.987,5.987,0,0,0,508.978,37a8.517,8.517,0,0,0,4.886,1.376,9.756,9.756,0,0,0,3.578-.619,9.4,9.4,0,0,0,2.89-1.858l3.991,4.335c-2.408,2.752-5.987,4.2-10.666,4.2a16.31,16.31,0,0,1-7.707-1.72,11.907,11.907,0,0,1-5.161-4.748A12.683,12.683,0,0,1,499,31.081a13.238,13.238,0,0,1,1.789-6.812,12.666,12.666,0,0,1,4.954-4.748,14.716,14.716,0,0,1,7.019-1.72,14.325,14.325,0,0,1,6.881,1.651,11.683,11.683,0,0,1,4.817,4.679,13.871,13.871,0,0,1,1.72,7.088A9.07,9.07,0,0,0,525.974,33.214ZM508.5,24.956a6.166,6.166,0,0,0-2.133,3.922h12.661a6.166,6.166,0,0,0-2.133-3.922,6.819,6.819,0,0,0-8.4,0Z" transform="translate(-162.577 -8.51)" fill="#0f375b"/>
  <path id="Path_162" data-name="Path 162" d="M560.88,40.377a8.031,8.031,0,0,1-2.684,1.239,13.314,13.314,0,0,1-3.372.413c-3.1,0-5.436-.757-7.088-2.34a9.085,9.085,0,0,1-2.546-6.881V22.142H541.2v-5.78h3.991V10.1h7.5v6.262h6.4v5.78h-6.4V32.6a3.657,3.657,0,0,0,.826,2.546,3.011,3.011,0,0,0,2.34.895,4.971,4.971,0,0,0,3.028-.963Z" transform="translate(-175.739 -6.109)" fill="#0f375b"/>
</svg>
