<svg id="Group_191" data-name="Group 191" xmlns="http://www.w3.org/2000/svg" xmlns:xlink="http://www.w3.org/1999/xlink" width="316.897" height="97.456" viewBox="0 0 316.897 97.456">
  <defs>
    <clipPath id="clip-path">
      <rect id="Rectangle_28" data-name="Rectangle 28" width="316.897" height="97.455" fill="#0f375b"/>
    </clipPath>
  </defs>
  <path id="Path_110" data-name="Path 110" d="M422.978,49.074l-26,77.962h19.491l26-77.962Z" transform="translate(-239.289 -29.581)" fill="#0f375b"/>
  <path id="Path_111" data-name="Path 111" d="M536.231,49.074l-13,38.982H494.02l-6.165,18.491h29.21l-6.836,20.489H529.72l26-77.962Z" transform="translate(-294.069 -29.581)" fill="#0f375b"/>
  <path id="Path_112" data-name="Path 112" d="M660.7,0l-25.67,76.966h19.5L680.2,0Z" transform="translate(-382.785 0)" fill="#0f375b"/>
  <path id="Path_113" data-name="Path 113" d="M714.892,147.212,708.725,165.7h29.221l6.157-18.491Z" transform="translate(-427.205 -88.736)" fill="#0f375b"/>
  <g id="Group_190" data-name="Group 190">
    <g id="Group_189" data-name="Group 189" clip-path="url(#clip-path)">
      <path id="Path_114" data-name="Path 114" d="M275.509,132a16.19,16.19,0,0,1-10.857,3.974c-6.727,0-12.6-4.555-12.6-11.546,0-5.456,4.025-8.9,8.581-11.017-1.854-2.064-3.337-4.343-3.337-7.256,0-5.93,5.349-9.584,10.8-9.584,5.668,0,10.7,3.758,10.7,9.8,0,4.45-2.648,7.468-6.462,9.375l3.919,4.712a8.524,8.524,0,0,0,1.378-3.706h7.732a16.24,16.24,0,0,1-4.186,9.215l7.944,9.215H278.158Zm-10.381-12.657c-1.852.846-4.395,2.7-4.395,4.977,0,2.648,2.543,4.343,4.979,4.343,1.695,0,3.6-1.375,5.03-2.7Zm6.3-13.505a3.08,3.08,0,0,0-6.143-.1c0,2.064,1.431,3.282,2.648,4.765,1.852-1.111,3.495-2.383,3.495-4.66" transform="translate(-151.93 -58.212)" fill="#0f375b"/>
      <path id="Path_115" data-name="Path 115" d="M61.742,52.9V49.463H45.091V52.73a29.755,29.755,0,0,0-28.441.188V49.464H0V126.97H16.65V104.975a29.752,29.752,0,0,0,28.441.187v3.206H61.742V76.073c.454-6.785,2.964-12,14.337-9.94l.014-16.29c-6.574-1.687-11.119.1-14.351,3.055M30.99,92.235A13.289,13.289,0,1,1,44.278,78.947,13.289,13.289,0,0,1,30.99,92.235" transform="translate(0 -29.652)" fill="#0f375b"/>
      <path id="Path_116" data-name="Path 116" d="M90.554,219.939v-4.881c0-2.219-2.321-2.609-3.592-2.609-1.847,0-3.762.39-4.033,3.152h2.288a1.275,1.275,0,0,1,1.457-1.254c.61,0,1.559.051,1.559,1.051,0,.508-.458.661-.831.711l-2.135.322a2.755,2.755,0,0,0-2.626,2.881,2.529,2.529,0,0,0,2.745,2.626,3.668,3.668,0,0,0,2.914-1.3,3.968,3.968,0,0,0,.22,1.067h2.558v-.356c-.288-.1-.525-.339-.525-1.406m-2.321-1.474a1.963,1.963,0,0,1-2.118,1.78,1.035,1.035,0,0,1-1.1-1.085c0-.983.729-1.2,1.61-1.355a3.457,3.457,0,0,0,1.61-.491Z" transform="translate(-49.814 -128.06)" fill="#0f375b"/>
      <path id="Path_117" data-name="Path 117" d="M54.289,206.9H51.917v2.441H50.7v1.694h1.22v5.473c0,1.169.373,1.949,2.423,1.949h.3c.373,0,.746-.017,1.119-.034v-1.8c-.17.017-.339.034-.491.034-.966,0-.983-.2-.983-.729v-4.9h1.474v-1.694H54.289Z" transform="translate(-30.559 -124.717)" fill="#0f375b"/>
      <path id="Path_118" data-name="Path 118" d="M73.062,212.483a4.219,4.219,0,0,0-.457-.034,2.638,2.638,0,0,0-2.474,1.8H70.1v-1.558H67.826V221.7H70.2v-4.694a1.917,1.917,0,0,1,2.186-2.152,4.5,4.5,0,0,1,.678.033Z" transform="translate(-40.884 -128.06)" fill="#0f375b"/>
      <path id="Path_119" data-name="Path 119" d="M176.1,212.687v1.338h-.034a2.715,2.715,0,0,0-2.643-1.575c-1.983,0-3.745,1.525-3.745,4.643,0,3.152,1.712,4.66,3.881,4.66a2.45,2.45,0,0,0,2.406-1.356l.034.035v1.084c0,1.457-.61,2.067-1.881,2.067-1.372,0-1.559-.457-1.66-.915h-2.576c.1,1.915,2.067,2.711,3.931,2.711,4.44,0,4.558-2.592,4.558-4.151v-8.54Zm-2.1,7.065c-1.407,0-1.881-1.355-1.881-2.507,0-2.1.983-2.746,1.864-2.746,1.322,0,2.033,1.187,2.033,2.643,0,1.237-.407,2.609-2.016,2.609" transform="translate(-102.279 -128.06)" fill="#0f375b"/>
      <path id="Path_120" data-name="Path 120" d="M149.926,212.449a2.9,2.9,0,0,0-2.711,1.559h-.034v-1.322h-2.271V221.7h2.372v-5.168a1.845,1.845,0,0,1,1.864-2.084c1.508,0,1.542,1.119,1.542,1.779V221.7h2.373v-6.236a2.877,2.877,0,0,0-3.135-3.016" transform="translate(-87.35 -128.06)" fill="#0f375b"/>
      <path id="Path_121" data-name="Path 121" d="M113.525,205.112v4.321h-.034a2.894,2.894,0,0,0-2.61-1.407c-1.983,0-3.745,1.525-3.745,4.643,0,2.474,1.119,4.846,3.8,4.846a2.862,2.862,0,0,0,2.61-1.373h.034v1.136H115.9V205.112Zm-2,10.455c-1.525,0-1.948-1.661-1.948-2.729,0-1.423.508-2.762,2.016-2.762,1.627,0,2.033,1.458,2.033,2.9,0,1.339-.593,2.593-2.1,2.593" transform="translate(-64.58 -123.638)" fill="#0f375b"/>
      <rect id="Rectangle_26" data-name="Rectangle 26" width="2.372" height="2.202" transform="translate(53.303 81.356)" fill="#0f375b"/>
      <rect id="Rectangle_27" data-name="Rectangle 27" width="2.372" height="9.014" transform="translate(53.303 84.626)" fill="#0f375b"/>
    </g>
  </g>
</svg>
