<svg id="Group_193" data-name="Group 193" xmlns="http://www.w3.org/2000/svg" xmlns:xlink="http://www.w3.org/1999/xlink" width="315.404" height="111.354" viewBox="0 0 315.404 111.354">
  <defs>
    <clipPath id="clip-path">
      <rect id="Rectangle_35" data-name="Rectangle 35" width="315.404" height="111.354" fill="#0f375b" stroke="#0f375b" stroke-width="1"/>
    </clipPath>
  </defs>
  <g id="Group_192" data-name="Group 192" transform="translate(0 0)" clip-path="url(#clip-path)">
    <path id="Path_122" data-name="Path 122" d="M230.985,0H228.44c-4.957.613-8.521,2.618-10.185,6.525h22.756C239.763,2.893,235.859.536,230.985,0" transform="translate(-120.706)" fill="#0f375b" stroke="#0f375b" stroke-width="1"/>
    <path id="Path_123" data-name="Path 123" d="M221.46,34.541h19.891c-1.91-6.409-17.5-6.623-19.891,0" transform="translate(-122.478 -16.4)" fill="#0f375b" stroke="#0f375b" stroke-width="1"/>
    <path id="Path_124" data-name="Path 124" d="M224.664,57.161H241.85c-2.245-4.736-14.969-4.82-17.186,0" transform="translate(-124.25 -29.631)" fill="#0f375b" stroke="#0f375b" stroke-width="1"/>
    <path id="Path_125" data-name="Path 125" d="M690.53,67.191c-6.85-1.1-7.77,9.311-.955,9.23,2.654-.031,3.889-1.695,4.615-3.978V71.011c-.734-2.152-1.693-3.5-3.66-3.82M685.6,72.443c-.339-2.625.925-4.319,3.5-4.615a3.794,3.794,0,0,1,4.3,3.5c.421,5.152-7.162,6.039-7.8,1.114" transform="translate(-378.786 -37.115)" fill="#0f375b" stroke="#0f375b" stroke-width="1"/>
    <path id="Path_126" data-name="Path 126" d="M694.973,73.618c-.335.355-.53.849-1.273.8.122,1.047,1.343,1.837,1.273,2.546-1.88.076-1.017-2.59-3.024-2.387-.551.4.329,2.239-.478,2.387-1.065-.541-.195-3.484-.477-4.933v-.477c1.26.067,2.86-.208,3.66.318a2.529,2.529,0,0,1,.318,1.75" transform="translate(-382.116 -39.563)" fill="#0f375b" stroke="#0f375b" stroke-width="1"/>
    <path id="Path_127" data-name="Path 127" d="M691,71.549v.477c.282,1.449-.589,4.392.477,4.933.807-.148-.073-1.983.478-2.387,2.006-.2,1.144,2.464,3.024,2.387.069-.709-1.151-1.5-1.273-2.546.743.054.939-.441,1.273-.8a2.529,2.529,0,0,0-.318-1.75c-.8-.526-2.4-.252-3.66-.318m.8,2.387v-1.75c.885.017,1.93-.126,2.387.318.307,1.58-1.068,1.479-2.387,1.432" transform="translate(-382.116 -39.563)" fill="#0f375b" stroke="#0f375b" stroke-width="1"/>
    <path id="Path_128" data-name="Path 128" d="M21.165,93c-3.531-2.122-10.474-2.586-11.139-5.888-.58-2.882,1.214-4.38,3.978-3.979,2.52.366,3.515,2.992,4.137,4.615,2.13-.788,4.554-1.281,6.684-2.068C23.351,75.024,6.308,74.109,2.069,82.974A10.284,10.284,0,0,0,6.047,96.341c3.6,2.164,12.08,2.355,10.662,7.638-.638,2.379-3.982,2.826-6.206,1.751-1.936-.936-2.451-3.157-3.024-4.615-2.523.393-5.07.764-7.479,1.273v.159c.846,7.5,7.416,10.447,14.959,9.866,7.381-.569,13.339-7.6,10.185-15.118A10.67,10.67,0,0,0,21.165,93" transform="translate(0 -42.554)" fill="#0f375b" stroke="#0f375b" stroke-width="1"/>
    <path id="Path_129" data-name="Path 129" d="M236.921,79.383C234.744,77.6,231,76.516,226.9,76.837c-5.106.4-7.639,1.908-9.707,4.774-5.351,7.416-3.666,24.788,3.183,28.962,5.033,3.067,13.585,2.08,17.186-1.432,6.75-6.58,5.628-24.635-.636-29.757m-4.774,15.436c0,4.936-.463,9.677-2.387,10.662a4.729,4.729,0,0,1-3.024.159c-3.637-1.287-3.835-17.891-1.273-21.165a2.942,2.942,0,0,1,1.591-.955c5.168-1.387,5.093,5.814,5.093,11.3" transform="translate(-118.366 -42.464)" fill="#0f375b" stroke="#0f375b" stroke-width="1"/>
    <path id="Path_130" data-name="Path 130" d="M540.7,76.514c-10.865.585-14.458,11.379-13.049,22.12.936,7.14,4.726,12.9,11.935,13.526,8.712.759,14.618-3.991,15.6-11.776-2.706-.318-5.725-.322-8.434-.637.3,4.191-4.071,7.844-7.638,5.252-2.076-1.508-2.073-5.489-1.751-9.07h17.823c.173-11.171-3.357-20.014-14.482-19.414m-3.5,14c-.194-4.55,1.66-9.086,6.206-7.479,2.375.838,2.83,3.967,2.865,7.479Z" transform="translate(-291.657 -42.3)" fill="#0f375b" stroke="#0f375b" stroke-width="1"/>
    <path id="Path_131" data-name="Path 131" d="M342.082,78.644a10.679,10.679,0,0,0-6.205-1.432c-3.5.355-5.2,3.128-6.684,5.252V77.689H320.44V123.52h9.23v-14c2.25,3.245,8.851,3.692,12.254,1.433,7.781-5.168,8.229-27.086.158-32.3M338.1,95.353c-.133,4.768-.269,9.423-2.864,10.344a5.02,5.02,0,0,1-4.3-.636c-1.56-1.434-1.273-6.232-1.273-10.026,0-5.538-.631-10.909,3.819-11.458,4.626-.571,4.767,6.323,4.615,11.776" transform="translate(-177.219 -42.68)" fill="#0f375b" stroke="#0f375b" stroke-width="1"/>
    <path id="Path_132" data-name="Path 132" d="M440.909,77.18c-3.529.4-4.987,3.049-6.684,5.252V77.657h-8.753v45.83h9.23v-14c2.819,3.689,10.133,3.736,13.686.319,6.273-6.036,6.35-24.391,0-30.235a9.322,9.322,0,0,0-7.479-2.387m-.636,28.485c-6.127,2.164-5.57-5.781-5.57-11.139,0-5.634-.292-10.432,3.82-10.98,4.661-.622,4.615,5.607,4.615,11.3,0,5.128-.264,9.9-2.865,10.821" transform="translate(-235.308 -42.648)" fill="#0f375b" stroke="#0f375b" stroke-width="1"/>
    <path id="Path_133" data-name="Path 133" d="M641.481,85.728V77.771h-8.434v34.214H642.6c.957-10.342-3.745-26.342,8.594-25.3v-9.23c-6.377-1.008-8.175,3.911-9.707,8.275" transform="translate(-350.107 -42.762)" fill="#0f375b" stroke="#0f375b" stroke-width="1"/>
    <path id="Path_134" data-name="Path 134" d="M117.027,99.018C115.984,92.157,114.938,85.3,114,78.33h-9.389c-1.176,6.993-2.41,13.929-3.819,20.688C99.44,92.151,98.064,85.3,96.817,78.33h-9.23c2.629,11.587,5.8,22.629,8.434,34.214h7.8c1.6-7.575,2.744-15.61,4.456-23.075,1.419,7.7,2.953,15.295,4.3,23.075h8.116c2.63-11.587,5.782-22.65,8.434-34.214H121.8c-1.707,6.781-3.016,13.959-4.774,20.688" transform="translate(-48.44 -43.32)" fill="#0f375b" stroke="#0f375b" stroke-width="1"/>
    <path id="Path_135" data-name="Path 135" d="M326.172,223.017a10.706,10.706,0,0,0-2.549-1.15,7.431,7.431,0,0,1-2.082-.974,2.526,2.526,0,0,1-1.067-2.093,2.626,2.626,0,0,1,.7-1.823,2.763,2.763,0,0,1,2.144-.86q2.352,0,3.191,2.818l.973-.269a5.317,5.317,0,0,0-.87-1.855,3.941,3.941,0,0,0-3.325-1.585,4.038,4.038,0,0,0-2.621.871,3.379,3.379,0,0,0-1.264,2.787,3.7,3.7,0,0,0,.3,1.492,3.058,3.058,0,0,0,1.026,1.336,12.5,12.5,0,0,0,2.859,1.3,6.668,6.668,0,0,1,2.114,1.046,2.73,2.73,0,0,1,.9,2.062,2.823,2.823,0,0,1-.757,1.948,3.061,3.061,0,0,1-2.4.984,3.642,3.642,0,0,1-1.906-.508,3.368,3.368,0,0,1-1.233-1.243,7.126,7.126,0,0,1-.58-1.357l-.922.321a5.737,5.737,0,0,0,1.233,2.289,4.218,4.218,0,0,0,3.305,1.388,4.374,4.374,0,0,0,3.129-1.067,3.732,3.732,0,0,0,1.2-2.839,3.784,3.784,0,0,0-.393-1.7,3.543,3.543,0,0,0-1.108-1.311" transform="translate(-176.315 -119.031)" fill="#0f375b" stroke="#0f375b" stroke-width="1"/>
    <path id="Path_136" data-name="Path 136" d="M326.172,223.017a10.706,10.706,0,0,0-2.549-1.15,7.431,7.431,0,0,1-2.082-.974,2.526,2.526,0,0,1-1.067-2.093,2.626,2.626,0,0,1,.7-1.823,2.763,2.763,0,0,1,2.144-.86q2.352,0,3.191,2.818l.973-.269a5.317,5.317,0,0,0-.87-1.855,3.941,3.941,0,0,0-3.325-1.585,4.038,4.038,0,0,0-2.621.871,3.379,3.379,0,0,0-1.264,2.787,3.7,3.7,0,0,0,.3,1.492,3.058,3.058,0,0,0,1.026,1.336,12.5,12.5,0,0,0,2.859,1.3,6.668,6.668,0,0,1,2.114,1.046,2.73,2.73,0,0,1,.9,2.062,2.823,2.823,0,0,1-.757,1.948,3.061,3.061,0,0,1-2.4.984,3.642,3.642,0,0,1-1.906-.508,3.368,3.368,0,0,1-1.233-1.243,7.126,7.126,0,0,1-.58-1.357l-.922.321a5.737,5.737,0,0,0,1.233,2.289,4.218,4.218,0,0,0,3.305,1.388,4.374,4.374,0,0,0,3.129-1.067,3.732,3.732,0,0,0,1.2-2.839,3.784,3.784,0,0,0-.393-1.7A3.543,3.543,0,0,0,326.172,223.017Z" transform="translate(-176.315 -119.031)" fill="#0f375b" stroke="#0f375b" stroke-miterlimit="10" stroke-width="2"/>
    <rect id="Rectangle_29" data-name="Rectangle 29" width="1.078" height="14.142" transform="translate(156.029 96.485)" fill="#0f375b" stroke="#0f375b" stroke-width="1"/>
    <rect id="Rectangle_30" data-name="Rectangle 30" width="1.078" height="14.142" transform="translate(156.029 96.485)" fill="#0f375b" stroke="#0f375b" stroke-miterlimit="10" stroke-width="2"/>
    <path id="Path_137" data-name="Path 137" d="M370.583,216.731a6.209,6.209,0,0,0-2.543-.772,22.482,22.482,0,0,0-2.258-.083h-1.668v14.142h2.393q3.471,0,4.921-1.6a7.99,7.99,0,0,0,1.761-5.564,8.9,8.9,0,0,0-.963-4.382,4.562,4.562,0,0,0-1.643-1.746M371.666,226a4.114,4.114,0,0,1-2.445,2.756,7.937,7.937,0,0,1-2.735.383h-1.295V216.757h.963q.859,0,1.078.01a5.751,5.751,0,0,1,2.662.642q2.238,1.316,2.238,5.46a9.562,9.562,0,0,1-.466,3.129" transform="translate(-201.373 -119.39)" fill="#0f375b" stroke="#0f375b" stroke-width="1"/>
    <path id="Path_138" data-name="Path 138" d="M370.583,216.731a6.209,6.209,0,0,0-2.543-.772,22.482,22.482,0,0,0-2.258-.083h-1.668v14.142h2.393q3.471,0,4.921-1.6a7.99,7.99,0,0,0,1.761-5.564,8.9,8.9,0,0,0-.963-4.382A4.562,4.562,0,0,0,370.583,216.731ZM371.666,226a4.114,4.114,0,0,1-2.445,2.756,7.937,7.937,0,0,1-2.735.383h-1.295V216.757h.963q.859,0,1.078.01a5.751,5.751,0,0,1,2.662.642q2.238,1.316,2.238,5.46A9.562,9.562,0,0,1,371.666,226Z" transform="translate(-201.373 -119.39)" fill="#0f375b" stroke="#0f375b" stroke-miterlimit="10" stroke-width="2"/>
    <path id="Path_139" data-name="Path 139" d="M418.231,216.731a6.211,6.211,0,0,0-2.543-.772,22.5,22.5,0,0,0-2.259-.083h-1.668v14.142h2.393q3.47,0,4.921-1.6a7.99,7.99,0,0,0,1.761-5.564,8.894,8.894,0,0,0-.964-4.382,4.56,4.56,0,0,0-1.642-1.746M419.313,226a4.113,4.113,0,0,1-2.445,2.756,7.942,7.942,0,0,1-2.735.383h-1.295V216.757h.964q.859,0,1.077.01a5.752,5.752,0,0,1,2.663.642q2.238,1.316,2.238,5.46a9.562,9.562,0,0,1-.467,3.129" transform="translate(-227.724 -119.39)" fill="#0f375b" stroke="#0f375b" stroke-width="1"/>
    <path id="Path_140" data-name="Path 140" d="M418.231,216.731a6.211,6.211,0,0,0-2.543-.772,22.5,22.5,0,0,0-2.259-.083h-1.668v14.142h2.393q3.47,0,4.921-1.6a7.99,7.99,0,0,0,1.761-5.564,8.894,8.894,0,0,0-.964-4.382A4.56,4.56,0,0,0,418.231,216.731ZM419.313,226a4.113,4.113,0,0,1-2.445,2.756,7.942,7.942,0,0,1-2.735.383h-1.295V216.757h.964q.859,0,1.077.01a5.752,5.752,0,0,1,2.663.642q2.238,1.316,2.238,5.46A9.562,9.562,0,0,1,419.313,226Z" transform="translate(-227.724 -119.39)" fill="#0f375b" stroke="#0f375b" stroke-miterlimit="10" stroke-width="2"/>
    <rect id="Rectangle_31" data-name="Rectangle 31" width="1.078" height="14.142" transform="translate(197.927 96.485)" fill="#0f375b" stroke="#0f375b" stroke-width="1"/>
    <rect id="Rectangle_32" data-name="Rectangle 32" width="1.078" height="14.142" transform="translate(197.927 96.485)" fill="#0f375b" stroke="#0f375b" stroke-miterlimit="10" stroke-width="2"/>
    <path id="Path_141" data-name="Path 141" d="M459.4,216.553a3.208,3.208,0,0,1,1.627-.435,3.046,3.046,0,0,1,2.735,1.554,5.872,5.872,0,0,1,.7,1.8l.922-.29a8.019,8.019,0,0,0-.953-2.249,3.736,3.736,0,0,0-3.347-1.71,4.264,4.264,0,0,0-3.843,2.124,9.6,9.6,0,0,0-1.264,5.17,13.432,13.432,0,0,0,.269,2.8,6.523,6.523,0,0,0,1.575,3.3,4.3,4.3,0,0,0,3.191,1.316,3.66,3.66,0,0,0,3.513-2.414v2.134h.859v-6.63H461.22v.88h3.243a12.243,12.243,0,0,1-.062,1.533,4.277,4.277,0,0,1-1.233,2.808,2.93,2.93,0,0,1-2.083.8,3.461,3.461,0,0,1-3.17-2.01,9.8,9.8,0,0,1-.871-4.631,8.505,8.505,0,0,1,1.088-4.621,3.641,3.641,0,0,1,1.264-1.233" transform="translate(-252.179 -119.031)" fill="#0f375b" stroke="#0f375b" stroke-width="1"/>
    <path id="Path_142" data-name="Path 142" d="M459.4,216.553a3.208,3.208,0,0,1,1.627-.435,3.046,3.046,0,0,1,2.735,1.554,5.872,5.872,0,0,1,.7,1.8l.922-.29a8.019,8.019,0,0,0-.953-2.249,3.736,3.736,0,0,0-3.347-1.71,4.264,4.264,0,0,0-3.843,2.124,9.6,9.6,0,0,0-1.264,5.17,13.432,13.432,0,0,0,.269,2.8,6.523,6.523,0,0,0,1.575,3.3,4.3,4.3,0,0,0,3.191,1.316,3.66,3.66,0,0,0,3.513-2.414v2.134h.859v-6.63H461.22v.88h3.243a12.243,12.243,0,0,1-.062,1.533,4.277,4.277,0,0,1-1.233,2.808,2.93,2.93,0,0,1-2.083.8,3.461,3.461,0,0,1-3.17-2.01,9.8,9.8,0,0,1-.871-4.631,8.505,8.505,0,0,1,1.088-4.621A3.641,3.641,0,0,1,459.4,216.553Z" transform="translate(-252.179 -119.031)" fill="#0f375b" stroke="#0f375b" stroke-miterlimit="10" stroke-width="2"/>
    <rect id="Rectangle_33" data-name="Rectangle 33" width="1.078" height="14.142" transform="translate(225.707 96.485)" fill="#0f375b" stroke="#0f375b" stroke-width="1"/>
    <rect id="Rectangle_34" data-name="Rectangle 34" width="1.078" height="14.142" transform="translate(225.707 96.485)" fill="#0f375b" stroke="#0f375b" stroke-miterlimit="10" stroke-width="2"/>
    <path id="Path_143" data-name="Path 143" d="M536.624,230.017H537.7V223h4.652v-.964H537.7v-5.2h6.185v-.964h-7.262Z" transform="translate(-296.78 -119.39)" fill="#0f375b" stroke="#0f375b" stroke-width="1"/>
    <path id="Path_144" data-name="Path 144" d="M536.624,230.017H537.7V223h4.652v-.964H537.7v-5.2h6.185v-.964h-7.262Z" transform="translate(-296.78 -119.39)" fill="#0f375b" stroke="#0f375b" stroke-miterlimit="10" stroke-width="2"/>
    <path id="Path_145" data-name="Path 145" d="M564.528,215.249a4.383,4.383,0,0,0-4.019,2.31,9.835,9.835,0,0,0-1.108,5.025,11.393,11.393,0,0,0,.808,4.486,4.266,4.266,0,0,0,4.175,2.88,4.439,4.439,0,0,0,4.227-2.766,10.287,10.287,0,0,0,.922-4.569q0-4.268-1.938-6.123a4.3,4.3,0,0,0-3.067-1.244m3.937,7.066a13.331,13.331,0,0,1-.217,2.528,6.24,6.24,0,0,1-1.316,3.056,3.23,3.23,0,0,1-2.476,1.161,3.087,3.087,0,0,1-2-.695,4.428,4.428,0,0,1-1.4-1.9,10.424,10.424,0,0,1-.6-3.8,8.866,8.866,0,0,1,1.233-5.108,3.292,3.292,0,0,1,2.7-1.419,3.482,3.482,0,0,1,3.243,2.061,8.908,8.908,0,0,1,.829,4.113" transform="translate(-309.376 -119.043)" fill="#0f375b" stroke="#0f375b" stroke-width="1"/>
    <path id="Path_146" data-name="Path 146" d="M564.528,215.249a4.383,4.383,0,0,0-4.019,2.31,9.835,9.835,0,0,0-1.108,5.025,11.393,11.393,0,0,0,.808,4.486,4.266,4.266,0,0,0,4.175,2.88,4.439,4.439,0,0,0,4.227-2.766,10.287,10.287,0,0,0,.922-4.569q0-4.268-1.938-6.123A4.3,4.3,0,0,0,564.528,215.249Zm3.937,7.066a13.331,13.331,0,0,1-.217,2.528,6.24,6.24,0,0,1-1.316,3.056,3.23,3.23,0,0,1-2.476,1.161,3.087,3.087,0,0,1-2-.695,4.428,4.428,0,0,1-1.4-1.9,10.424,10.424,0,0,1-.6-3.8,8.866,8.866,0,0,1,1.233-5.108,3.292,3.292,0,0,1,2.7-1.419,3.482,3.482,0,0,1,3.243,2.061A8.908,8.908,0,0,1,568.465,222.315Z" transform="translate(-309.376 -119.043)" fill="#0f375b" stroke="#0f375b" stroke-miterlimit="10" stroke-width="2"/>
    <path id="Path_147" data-name="Path 147" d="M601.05,219.636a3.782,3.782,0,0,0-.58-2.072,3.173,3.173,0,0,0-1.762-1.378,10.175,10.175,0,0,0-2.89-.311h-3.046v14.142h1.078v-6.589h.2l1.626.01q.5,0,1.285-.031l2.86,6.61h1.222l-2.994-6.775a4.077,4.077,0,0,0,1.834-.86,3.487,3.487,0,0,0,1.171-2.746m-2.425,2.487a6.5,6.5,0,0,1-2.725.425H593.85v-5.791h1.969q.662,0,.963.021a3.861,3.861,0,0,1,2.352.736,2.623,2.623,0,0,1,.849,2.093,3.291,3.291,0,0,1-.28,1.347,2.271,2.271,0,0,1-1.078,1.171" transform="translate(-327.833 -119.39)" fill="#0f375b" stroke="#0f375b" stroke-width="1"/>
    <path id="Path_148" data-name="Path 148" d="M601.05,219.636a3.782,3.782,0,0,0-.58-2.072,3.173,3.173,0,0,0-1.762-1.378,10.175,10.175,0,0,0-2.89-.311h-3.046v14.142h1.078v-6.589h.2l1.626.01q.5,0,1.285-.031l2.86,6.61h1.222l-2.994-6.775a4.077,4.077,0,0,0,1.834-.86A3.487,3.487,0,0,0,601.05,219.636Zm-2.425,2.487a6.5,6.5,0,0,1-2.725.425H593.85v-5.791h1.969q.662,0,.963.021a3.861,3.861,0,0,1,2.352.736,2.623,2.623,0,0,1,.849,2.093,3.291,3.291,0,0,1-.28,1.347A2.271,2.271,0,0,1,598.626,222.122Z" transform="translate(-327.833 -119.39)" fill="#0f375b" stroke="#0f375b" stroke-miterlimit="10" stroke-width="2"/>
    <path id="Path_149" data-name="Path 149" d="M627.219,225.811a26.383,26.383,0,0,0-.653,2.559H626.5q-.1-.581-.341-1.43-.115-.4-.238-.891-.073-.258-.093-.311l-2.9-9.863h-1.906v14.142H622.1V218.58q0-1.014-.073-2.092h.073l.165.58.238.839.187.622,3.367,11.489h.881l3.284-11.189q.476-1.626.673-2.341h.083q-.073,1.057-.083,2.465v11.065h1.078V215.876H630.12Z" transform="translate(-343.457 -119.39)" fill="#0f375b" stroke="#0f375b" stroke-width="1"/>
    <path id="Path_150" data-name="Path 150" d="M627.219,225.811a26.383,26.383,0,0,0-.653,2.559H626.5q-.1-.581-.341-1.43-.115-.4-.238-.891-.073-.258-.093-.311l-2.9-9.863h-1.906v14.142H622.1V218.58q0-1.014-.073-2.092h.073l.165.58.238.839.187.622,3.367,11.489h.881l3.284-11.189q.476-1.626.673-2.341h.083q-.073,1.057-.083,2.465v11.065h1.078V215.876H630.12Z" transform="translate(-343.457 -119.39)" fill="#0f375b" stroke="#0f375b" stroke-miterlimit="10" stroke-width="2"/>
  </g>
</svg>
