<svg xmlns="http://www.w3.org/2000/svg" width="347.864" height="37.967" viewBox="0 0 347.864 37.967">
  <path id="dacia-hvid" d="M112.764,0a1.871,1.871,0,0,0-1.472.859l-36.2,37.056H94.114l18.528-19.142,18.651,19.142h19.142L114.237.86A2.276,2.276,0,0,0,112.764,0Zm198.9.859a1.787,1.787,0,0,0-2.454-.614A1.479,1.479,0,0,0,308.6.86L272.524,37.916h19.019l18.528-19.142,18.651,19.142h19.142ZM54.235,2.578A5.451,5.451,0,0,0,49.327.614H0V13.253H45.523L51.9,19.265l-6.381,6.012H0V37.916H49.327a6.139,6.139,0,0,0,4.908-1.963L69.2,20.738a2.619,2.619,0,0,0,.859-1.472,1.871,1.871,0,0,0-.859-1.472L54.235,2.578Zm117.059,0-14.97,15.215a2.618,2.618,0,0,0-.859,1.472,1.871,1.871,0,0,0,.859,1.472l14.97,15.215a5.451,5.451,0,0,0,4.908,1.963h49.327V25.278h-45.4l-6.381-6.012,6.381-6.012h45.523V.492H176.325a6.139,6.139,0,0,0-4.908,1.963h0Zm74.849,35.339h13.743V.492H246.143Z" transform="translate(0 0.004)" fill="#0f375b"/>
</svg>
