<svg id="Group_188" data-name="Group 188" xmlns="http://www.w3.org/2000/svg" xmlns:xlink="http://www.w3.org/1999/xlink" width="122.461" height="141.156" viewBox="0 0 122.461 141.156">
  <defs>
    <clipPath id="clip-path">
      <rect id="Rectangle_25" data-name="Rectangle 25" width="122.461" height="141.156" fill="#0f375b"/>
    </clipPath>
  </defs>
  <g id="Group_187" data-name="Group 187" clip-path="url(#clip-path)">
    <path id="Path_83" data-name="Path 83" d="M61.231,139.531c-32.867,0-59.606-30.8-59.606-69S28.364,1.625,61.231,1.625s59.606,30.711,59.606,68.908-26.739,69-59.606,69M61.231,0C27.468,0,0,31.44,0,70.533s27.468,70.623,61.231,70.623,61.231-31.531,61.231-70.623S94.993,0,61.231,0" fill="#0f375b"/>
    <path id="Path_84" data-name="Path 84" d="M63.732,587.358l-.12.486a4.611,4.611,0,0,1,3.947,3.329c.53,2.039-.46,4.793-4.307,5.79-4.042,1.048-6.393-.423-6.934-2.517-.465-1.791.459-3.336,2.446-4.722l-.1-.372-3.954,1.025.1.372.941.418a6.439,6.439,0,0,0,8.072,7.709c3.706-.961,5.545-4.012,4.659-7.433a5.551,5.551,0,0,0-4.749-4.086" transform="translate(-47.219 -506.912)" fill="#0f375b"/>
    <path id="Path_85" data-name="Path 85" d="M51.833,505.482l9.478-.414c.677-.03,1.005.359,1.13,1.948l.42-.018-.436-9.971-4.013.03v.4c2.71.761,3.57,1.585,3.676,4l.081,1.83-10.411.455c-.695.031-1.017-.231-1.144-1.856l-.4.017.246,5.635.4-.018c-.015-1.594.3-2.01.974-2.04" transform="translate(-43.333 -428.952)" fill="#0f375b"/>
    <path id="Path_86" data-name="Path 86" d="M56.687,403.429l.012-.072,5.4-.932-.629,3.831Zm8.943,7.48.38.062.667-4.066-.38-.063c-.535,1.564-.962,1.68-2.807.6l-1.541-.9.691-4.211,2.98-.513c1.071-.195,1.391.117,1.211,1.777l.38.062.89-5.422-.38-.062a2.081,2.081,0,0,1-2.025,1.82L54.585,402.1l-.1.614,8.8,5.3c1.671,1.016,2.255,1.632,2.346,2.89" transform="translate(-47.023 -343.634)" fill="#0f375b"/>
    <path id="Path_87" data-name="Path 87" d="M89.744,308.955c-2.172-.833-3.348.6-4.494,2-1.354,1.638-2.223,2.521-3.608,1.99a2.206,2.206,0,0,1-1.3-3.009c.532-1.385,1.985-2,4.122-1.95l.15-.393-3.5-1.344-.111.29.337.757a6.491,6.491,0,0,0-1.366,2.183c-.833,2.172-.155,4.392,2.034,5.232,2.154.827,3.265-.689,4.439-2.063,1.565-1.831,2.435-2.616,3.888-2.058a2.453,2.453,0,0,1,1.252,3.383c-.643,1.676-2.379,2.266-4.8,2.378l-.15.393,3.932,1.508.118-.308-.316-1.22A6.825,6.825,0,0,0,92,314.314a3.852,3.852,0,0,0-2.26-5.359" transform="translate(-68.72 -264.308)" fill="#0f375b"/>
    <path id="Path_88" data-name="Path 88" d="M120.872,232.6c1.949,1.235,3.338-.032,4.76-1.147,1.9-1.488,2.9-2.085,4.22-1.252a2.455,2.455,0,0,1,.56,3.565c-.961,1.516-2.78,1.751-5.171,1.385l-.226.356,3.559,2.255.177-.279-.07-1.258a6.823,6.823,0,0,0,2.077-2.046,3.852,3.852,0,0,0-1.159-5.7c-1.965-1.245-3.4-.074-4.8,1.077-1.65,1.34-2.676,2.035-3.929,1.24a2.2,2.2,0,0,1-.68-3.205c.794-1.253,2.341-1.574,4.426-1.1l.226-.356-3.173-2.009-.166.263.182.809a6.484,6.484,0,0,0-1.77,1.871c-1.245,1.965-1.018,4.277.962,5.531" transform="translate(-102.822 -193.425)" fill="#0f375b"/>
    <path id="Path_89" data-name="Path 89" d="M164.473,170.723l6.919,6.491c.494.463.47.944-.617,2.184l.307.288,3.947-4.208-.307-.288c-1.167,1.164-1.645,1.218-2.139.755l-6.92-6.491c-.494-.464-.484-.957.6-2.2l-.294-.277-3.947,4.207.294.277c1.167-1.165,1.659-1.206,2.153-.743" transform="translate(-139.835 -144.112)" fill="#0f375b"/>
    <path id="Path_90" data-name="Path 90" d="M242.937,111.661a5.554,5.554,0,0,0,2.339-5.812l-.5.042a4.613,4.613,0,0,1-1.88,4.81c-1.76,1.157-4.686,1.108-6.869-2.214-2.3-3.489-1.657-6.188.148-7.375,1.546-1.017,3.306-.64,5.259.795l.32-.211-2.243-3.413-.321.211L239.1,99.52a6.439,6.439,0,0,0-4.7,10.125c2.1,3.2,5.583,3.958,8.538,2.016" transform="translate(-201.283 -84.822)" fill="#0f375b"/>
    <path id="Path_91" data-name="Path 91" d="M371.037,69.385a5.551,5.551,0,0,0,4.564-4.291l-.469-.17A4.615,4.615,0,0,1,371.4,68.5c-2.083.31-4.717-.964-5.3-4.9-.615-4.13,1.1-6.311,3.234-6.629,1.83-.274,3.269.809,4.436,2.931l.381-.056-.6-4.04-.381.057-.515.891a6.439,6.439,0,0,0-8.518,7.213c.564,3.786,3.4,5.937,6.9,5.417" transform="translate(-314.194 -48.164)" fill="#0f375b"/>
    <path id="Path_92" data-name="Path 92" d="M456.461,65.46l.072.013.83,5.423-3.819-.7Zm-3.6,9.546c-1.553-.564-1.661-.994-.544-2.819l.932-1.524,4.2.769.457,2.99c.175,1.075-.143,1.389-1.8,1.178l-.069.379,5.4.992.069-.378a2.081,2.081,0,0,1-1.782-2.059l-1.9-11.151-.612-.112-5.47,8.7c-1.048,1.651-1.676,2.226-2.935,2.292l-.069.379,4.053.744Z" transform="translate(-387.282 -54.605)" fill="#0f375b"/>
    <path id="Path_93" data-name="Path 93" d="M554.749,88.234l1.2.667c2.1,1.164,2.341,2.347,1.541,3.788-.853,1.538-1.859,2.256-4.005,1.065l-1.377-.764Zm-3.877,10.983c-1.431-.857-1.538-1.231-1.19-1.855l2.178-3.923,1.3.721c1.777.987,2.126,1.641,1.406,3.316l-.637,1.448c-.665,1.537-.614,2.277,1.258,3.317a5.437,5.437,0,0,0,1.144.468l.2-.353c-1.247-.734-1.443-1.136-.976-2.469l.444-1.178c.577-1.565.69-2.676-1.366-4.027l.027-.048c2.406.834,3.809.271,4.546-1.058.8-1.441.346-3.265-2.888-5.06l-4.58-2.543-.195.352c1.365.821,1.558,1.305,1.23,1.9l-4.605,8.295c-.33.592-.833.668-2.252-.057l-.205.368,4.965,2.756Z" transform="translate(-470.962 -74.197)" fill="#0f375b"/>
    <path id="Path_94" data-name="Path 94" d="M651.333,186.159c-.992-1.363-.879-1.636-.3-2.086l3.714-2.891,3.611,4.638-3.714,2.891c-.579.45-.882.478-1.948-.8l-.333.259,3.408,4.378.332-.259c-.924-1.276-.94-1.774-.391-2.2l7.5-5.838c.534-.415,1.026-.289,2.038.921l.318-.248-3.408-4.378-.318.248c.981,1.348.865,1.647.3,2.085l-3.366,2.622-3.612-4.639,3.367-2.62c.564-.439.87-.493,1.948.8l.318-.247-3.42-4.393-.318.248c.935,1.291.937,1.8.4,2.216l-7.5,5.837c-.549.428-1.028.289-2.05-.934l-.332.258L651,186.419Z" transform="translate(-558.888 -150.513)" fill="#0f375b"/>
    <path id="Path_95" data-name="Path 95" d="M728.536,299.366c4.108-1.664,6.152-.812,7,1.292.859,2.123.046,4.309-4.062,5.973s-6.159.794-7.012-1.31c-.859-2.122-.055-4.285,4.07-5.955m3.725,9.1c3.649-1.478,4.981-4.922,3.772-7.909-1.183-2.92-4.638-4.524-8.288-3.046-3.666,1.485-5,4.929-3.781,7.933,1.175,2.9,4.647,4.5,8.3,3.022" transform="translate(-624.43 -256.282)" fill="#0f375b"/>
    <path id="Path_96" data-name="Path 96" d="M752.056,403.451c.428,3.028,2.422,4.319,4.579,4.015l5.748-.81c1.705-.24,2.285-.062,2.811,1.565l.381-.053-.669-4.751-.382.053c0,1.813-.516,2.367-2.222,2.607l-5.367.756a3.522,3.522,0,0,1-2.875-.575,3.283,3.283,0,0,1-1.2-2.2c-.281-1.994.359-3.749,2.826-4.1l7.108-1c.707-.1,1.021.022,1.31,1.683l.4-.056-.777-5.513-.4.056c.165,1.568-.105,2.013-.776,2.107l-7.49,1.055c-2.248.317-3.415,2.275-3.009,5.159" transform="translate(-648.984 -340.964)" fill="#0f375b"/>
    <path id="Path_97" data-name="Path 97" d="M765.191,514.407c-2.3-.152-2.916,1.625-3.632,3.284-.954,2.214-1.553,3.22-3.106,3.117a2.453,2.453,0,0,1-2.2-2.862c.118-1.791,1.6-2.868,3.879-3.69l.027-.42-4.2-.279-.021.33.663,1.072a6.828,6.828,0,0,0-.846,2.789A3.853,3.853,0,0,0,759.5,522.2c2.321.153,3.022-1.562,3.7-3.243.809-1.966,1.378-3.067,2.859-2.969a2.205,2.205,0,0,1,2.13,2.491c-.1,1.48-1.3,2.5-3.362,3.082l-.028.42,3.746.248.02-.311-.546-.624a6.47,6.47,0,0,0,.66-2.489c.154-2.322-1.151-4.243-3.49-4.4" transform="translate(-652.233 -443.219)" fill="#0f375b"/>
    <path id="Path_98" data-name="Path 98" d="M747.038,592.857l-9.156-2.484c-.654-.177-.849-.648-.485-2.2l-.406-.11-2.786,10.269,3.811,1.129.124-.384c-2.051-1.392-2.914-2.48-2.272-4.849l.657-2.422,5.444,1.478-.293,1.078c-.379,1.4-.847,1.934-2.862,1.88l-.1.354,4.914,1.333.1-.353c-1.768-.973-1.918-1.678-1.538-3.074l.292-1.079,5,1.357-.657,2.422c-.547,2.014-1.612,2.371-3.952,2.533l-.088.394,3.549.906,2.638-9.721-.389-.105c-.47,1.523-.894,1.826-1.548,1.648" transform="translate(-633.647 -507.521)" fill="#0f375b"/>
    <path id="Path_99" data-name="Path 99" d="M187.876,796.923c.6.813.264,1.058-.579,1.037l-3.416-.132,2.146-2c.3-.277.465-.321,1.14.355l.166-.156-2.152-2.3-.166.155c.593.681.619.969.34,1.23l-3.935,3.675c-.288.268-.565.214-1.2-.423l-.176.163,2.089,2.236.174-.163c-.565-.65-.515-.809-.212-1.093l1.493-1.394,1.027.05L184,801.238c-.125.627-.333.707-.96.172l-.159.148,2.053,2.2.159-.149a1.867,1.867,0,0,1-.276-1.815l.682-3.6,1.86.094a3.407,3.407,0,0,1,2.4.654l.159-.148-1.883-2.018Z" transform="translate(-155.382 -685.01)" fill="#0f375b"/>
    <path id="Path_100" data-name="Path 100" d="M236.647,878.34a.612.612,0,1,0-.768.952.612.612,0,1,0,.768-.952" transform="translate(-203.369 -757.917)" fill="#0f375b"/>
    <path id="Path_101" data-name="Path 101" d="M284.274,861.594l.107-.19-2.178-1.228-.106.19c.745.6.769.875-.044,1.619l-3.067,2.842-.037-.02,1-4.77c.109-.534.306-.649,1.081-.271l.107-.19-2.521-1.421-.106.19a1.091,1.091,0,0,1,.5,1.39l-.12.551-3.231,2.69-.036-.02,1.108-4.732c.108-.487.288-.659,1.037-.3l.107-.19-2.575-1.451-.107.19c.62.5.711.722.578,1.361l-1.356,6.248.307.173,4.063-3.425-1.028,5.135.3.168,4.267-3.915c.764-.7,1.242-.872,1.949-.628" transform="translate(-236.832 -739.006)" fill="#0f375b"/>
    <path id="Path_102" data-name="Path 102" d="M341.8,937.317a.609.609,0,0,0-.789.373.617.617,0,1,0,.789-.373" transform="translate(-294.28 -808.908)" fill="#0f375b"/>
    <path id="Path_103" data-name="Path 103" d="M409.463,916.329l-1.014-.073.238-3.268.921.067c1.334.1,1.845.789,1.779,1.7-.081,1.117-.476,1.681-1.923,1.576m-.547-6.506.889.064c1.3.095,1.582.707,1.518,1.576-.067.931-.506,1.388-1.717,1.3l-.9-.065Zm1.539,3.147,0-.041c1.378-.078,1.868-.8,1.914-1.442.065-.9-.529-1.743-2.607-1.894l-2.937-.213-.016.228c.9.1,1.111.3,1.084.682l-.389,5.357c-.028.383-.268.543-1.171.508l-.016.238,3.03.22c2.2.159,3.028-.748,3.1-1.8.063-.88-.567-1.643-2-1.84" transform="translate(-350.669 -784.829)" fill="#0f375b"/>
    <path id="Path_104" data-name="Path 104" d="M473.792,911.553l-.883.135-.464-3.046.769-.117c1.344-.2,1.863.241,2,1.163.15.985-.052,1.656-1.426,1.865m3.048,2.033-.209-.682c-.284-.9-.617-1.438-2.007-1.331l-.005-.032c1.367-.46,1.8-1.2,1.672-2.049-.141-.922-.977-1.582-3.047-1.266l-2.934.447.035.225c.9-.1,1.15.045,1.208.425l.81,5.313c.057.38-.142.588-1.029.754l.036.236,3.179-.484-.036-.236c-.938.111-1.115-.019-1.177-.419l-.383-2.512.831-.127c1.139-.174,1.522,0,1.779,1l.216.87c.235.918.513,1.233,1.713,1.05a3.144,3.144,0,0,0,.675-.187l-.035-.225c-.812.1-1.04-.009-1.292-.769" transform="translate(-405.894 -783.765)" fill="#0f375b"/>
    <path id="Path_105" data-name="Path 105" d="M537.151,882.833c-.366-.9-.349-1.246.472-1.758l-.082-.2-2.518,1.021.082.2c1-.247,1.372-.041,1.737.862L538,885.8a1.993,1.993,0,0,1,.079,1.657,1.855,1.855,0,0,1-1.043.959,1.8,1.8,0,0,1-2.639-.989l-1.528-3.767c-.152-.374-.127-.564.745-.951l-.086-.211-2.922,1.184.086.212c.838-.306,1.12-.219,1.264.137L533.563,888c.483,1.191,1.719,1.563,3.246.944,1.605-.651,2.04-1.924,1.577-3.068Z" transform="translate(-457.93 -760.227)" fill="#0f375b"/>
    <path id="Path_106" data-name="Path 106" d="M599.173,844.974c-.558-.8-.617-1.137.069-1.819l-.125-.179-2.227,1.556.126.179c.915-.463,1.327-.346,1.884.453l1.758,2.516a1.991,1.991,0,0,1,.446,1.6,1.863,1.863,0,0,1-.8,1.168,1.8,1.8,0,0,1-2.792-.376l-2.328-3.332c-.232-.332-.25-.521.514-1.092l-.131-.188-2.584,1.805.13.187c.749-.485,1.043-.462,1.262-.148l2.452,3.51c.736,1.053,2.024,1.141,3.375.2,1.419-.992,1.56-2.33.854-3.341Z" transform="translate(-511.766 -727.52)" fill="#0f375b"/>
    <path id="Path_107" data-name="Path 107" d="M654.26,793.552l-.158-.15-1.86,1.967.158.149c.8-.631,1.224-.6,1.931.072l2.78,2.63-.007.007-6.765-.848-1.361,1.439.165.157c.614-.62,1.121-.552,1.491-.2l3.035,2.873c.716.678.792,1.05.257,1.856l.157.15,1.861-1.967-.158-.149c-.818.639-1.174.546-1.889-.132l-3.11-2.944.007-.007,7.573.929.214-.225-4.022-3.807c-.708-.67-.827-1-.3-1.8" transform="translate(-560.092 -684.736)" fill="#0f375b"/>
    <path id="Path_108" data-name="Path 108" d="M236.637,238.673,228.7,217.9c-2.921-7.821-2.984-7.509-6.546-7.509h-1.239l.02,33.947h-6.6V206.4h8c7.238,0,9.223-.056,13.484,11.5l10,26.431c-6.012,0-7.024.181-9.184-5.655m-25.667,5.662h-6.6l.02-33.947h-1.239c-3.562,0-3.625-.312-6.546,7.509l-7.937,20.777c-2.158,5.835-3.172,5.655-9.184,5.655l10-26.431c4.262-11.554,6.247-11.5,13.484-11.5h8Zm1.685-63.21c-20.836,0-37.727,20.472-37.727,45.725s16.892,45.725,37.727,45.725,37.727-20.471,37.727-45.725-16.891-45.725-37.727-45.725" transform="translate(-150.969 -156.317)" fill="#0f375b"/>
  </g>
</svg>
