<svg xmlns="http://www.w3.org/2000/svg" width="201.331" height="131.893" viewBox="0 0 201.331 131.893">
  <g id="Group_157" data-name="Group 157" transform="translate(2.819 2.176)">
    <path id="Path_37" data-name="Path 37" d="M38.5,19.318c-5.189,7.068-12.181,8.871-20.516,8.547-8.435-.329-16.422-3.035-24.706-3.84-4.7-.458-9.593-.777-14.251.7a10.305,10.305,0,0,0-3.832,2.31c-1.53,1.458-1.073,4.51.742,5.723,1.869,1.249,3.95,2.2,5.75,3.528,2.573,1.9,2.615,3.915.412,6.142-2.769,2.8-6.473,3.681-10.049,4.575-8.618,2.154-17.494,2.121-26.216,1.444-8.761-.681-17.72-1.226-25.856-5.273-1.143-.569-3-.55-2.724-2.679.24-1.85,1.676-2.235,3.1-2.7a63.115,63.115,0,0,1,17.756-3.016c4.54-.151,8.992-.959,13.5-1.225M-157.217-11.212c10.212,8.659,20.784,5.124,31.244.736,11.175-4.688,21.139-11.712,32.03-16.979a55.864,55.864,0,0,1,9.3-3.371c3.778-1.062,7.855,1.3,9.609,5.343,6.417,14.792,14.161,28.946,20.852,43.6.049.106-.045.286.014.378,1.2,1.892,2.233,4.068,5.008,3.848,2.353-.187,3.34-1.942,4.261-3.837Q-36.069.352-27.148-17.765c3.232-6.526,6.706-13.087,8.307-20.114,2.947-12.934,1.059-26.41-12.578-35.45-18.272-12.113-42.814-3.7-48.915,18.147-1.661,5.946-.573,12.131.743,18.1.555,2.52,2.9,3.4,5.337,2.307,2.728-1.224,5.382-2.613,8.069-3.931-6.864-14.932,5.163-28.307,18.566-27.671,7.812.371,15.368,6.846,17.367,14.645,1.663,6.485-2.105,15.981-8.129,19.64-5.685,3.457-12.038,2.645-18.48-2.3a31.48,31.48,0,0,1-3.486-3.455A4.534,4.534,0,0,0-65.756-39m-.386,1.158c3.483,6.795,9.181,10.42,16.6,11.574a3.276,3.276,0,0,1,3.056,3.477c-.026,8.643.061,17.245-1.361,25.881-1.313,7.981-2.879,16.086-1.676,24.284.627,4.277,1.6,8.418,4.975,11.6a10.571,10.571,0,0,0,14.416-.128c-2.487-3.61-6.456-3.6-10.153-4.109-2.165-.3-4.37-.288-6.557-.416" transform="translate(157.217 78.887)" fill="none" stroke="#0f375b" stroke-linecap="round" stroke-linejoin="round" stroke-width="4"/>
  </g>
</svg>
